<svg id="レイヤー_1" data-name="レイヤー 1" xmlns="http://www.w3.org/2000/svg" viewBox="0 0 535 450"><defs><style>.cls-1{fill:#b581b0;opacity:0.6;}.cls-2{fill:none;stroke:#fff;stroke-linejoin:bevel;stroke-width:2.13px;}.cls-3{font-size:24.55px;}.cls-3,.cls-4{fill:#fff;font-family:mplus-1c-bold, M+ 1c;font-weight:700;}.cls-4{font-size:30.01px;}</style></defs><title>アートボード 5</title><circle class="cls-1" cx="304.12" cy="207.67" r="142.99"/><polygon class="cls-2" points="203.79 179.38 297.73 179.38 349.79 257.39 138.14 257.39 203.79 179.38"/><polygon class="cls-2" points="348.28 257.39 317.09 319.26 204.59 319.26 163.59 257.39 348.28 257.39"/><polygon class="cls-2" points="203.87 319.26 176.75 381.13 376.69 381.13 317.95 319.26 203.87 319.26"/><polygon class="cls-2" points="349.91 255.98 429.75 318.44 408.39 443 455.61 443 530.96 274.73 483.72 200.9 313.15 200.9 349.91 255.98"/><polygon class="cls-2" points="297.28 178.44 389.64 91.37 389.64 7.21 477.49 7.21 530.43 274.86 483.12 200.9 312.27 200.9 297.28 178.44"/><polygon class="cls-2" points="204.03 179.38 204.03 7.21 389.64 7.21 389.64 91.83 297.4 179.38 204.03 179.38"/><polygon class="cls-2" points="204.03 8.03 77.59 104.98 77.59 196.66 138.83 256.36 204.03 178.89 204.03 8.03"/><text class="cls-3" transform="translate(115.78 146.94)">群馬</text><text class="cls-3" transform="translate(273.07 86.92)">栃木</text><text class="cls-3" transform="translate(410.01 141.61)">茨城</text><text class="cls-3" transform="translate(222.14 228.61)">埼玉</text><text class="cls-3" transform="translate(231.38 297)">東京</text><text class="cls-3" transform="translate(424.23 277.1)">千葉</text><text class="cls-3" transform="translate(229.99 358.24)">神奈川</text><text class="cls-4" transform="translate(20.2 395.61)">対応<tspan x="-15" y="34.8">エリア</tspan></text></svg>