<svg id="レイヤー_1" data-name="レイヤー 1" xmlns="http://www.w3.org/2000/svg" viewBox="0 0 662 136"><defs><style>.cls-1,.cls-2{fill:#b787ba;}.cls-2{fill-rule:evenodd;}.cls-3{fill:#56206d;}</style></defs><title>fuji_logo</title><path class="cls-1" d="M514.44,1.85h26.64a5.55,5.55,0,0,1,5.55,5.55v24A5.56,5.56,0,0,1,541.09,37H514.44a5.56,5.56,0,0,1-5.56-5.56v-24A5.56,5.56,0,0,1,514.44,1.85Z"/><rect class="cls-1" x="552.19" y="1.85" width="37.75" height="35.14" rx="5.56" ry="5.56"/><path class="cls-1" d="M514.44,41.19h26.64a5.55,5.55,0,0,1,5.55,5.55v24a5.56,5.56,0,0,1-5.56,5.56H514.44a5.56,5.56,0,0,1-5.56-5.56v-24A5.56,5.56,0,0,1,514.44,41.19Z"/><rect class="cls-1" x="552.19" y="41.19" width="37.75" height="35.14" rx="5.56" ry="5.56"/><path class="cls-1" d="M547.29,97.06a18.88,18.88,0,1,0,18.88,18.87A18.87,18.87,0,0,0,547.29,97.06Zm0,27.23a8.36,8.36,0,1,1,8.36-8.36A8.36,8.36,0,0,1,547.29,124.29Z"/><path class="cls-1" d="M621.86,97.06a18.88,18.88,0,1,0,18.88,18.87A18.87,18.87,0,0,0,621.86,97.06Zm0,27.23a8.36,8.36,0,1,1,8.36-8.36A8.36,8.36,0,0,1,621.86,124.29Z"/><path class="cls-2" d="M661,104.79V83.71s.77-2.38-5.69-12.76L642.4,50.31a16.13,16.13,0,0,0-1.94-3.12l0,0h0a16,16,0,0,0-12.44-6H603a6,6,0,0,0-6,6V76.47a7,7,0,0,1-6.77,5.37H511.67a7,7,0,0,0-7,7v16a7,7,0,0,0,7,7h6a7,7,0,0,0,6.14-3.74h0a1.63,1.63,0,0,1,.08-.22c.1-.22.2-.44.28-.67,1.48-3.38,7.81-15.38,23-15.38s21.58,12,23.06,15.38a5.58,5.58,0,0,0,.28.67l.08.22h0a7,7,0,0,0,6.14,3.74h15.39a6.93,6.93,0,0,0,6.14-3.74h0s0-.07.07-.19a6.66,6.66,0,0,0,.31-.73c1.5-3.42,7.84-15.35,23-15.35s21.54,11.93,23,15.35a6.66,6.66,0,0,0,.31.73c0,.12.07.19.07.19h0a6.93,6.93,0,0,0,6.14,3.74H654A7,7,0,0,0,661,104.79Zm-33-57h.81a8.43,8.43,0,0,1,6.65,4.3l11.26,18h0l0,0,.43.69a1.76,1.76,0,0,1-1.69,2.37l-31.87,0h-7.55a1.8,1.8,0,0,1-1.8-1.8V51.17a3.34,3.34,0,0,1,3.34-3.34H628Z"/><path class="cls-3" d="M63.24,29.22a12.59,12.59,0,0,0-3.8-3.61C57,24,51.51,23.9,51.51,23.9L50.43,24V16.14H58.7l-2.38-3-.68,1.14H50.43V6.16L43.74,7.64l1.59,1.7v5H35.92l2.26,3.4,1.25-1.59h5.9v8.5A10.57,10.57,0,0,0,41.84,26c-3.77,2.23-5,6.08-5.75,10.17A12.5,12.5,0,0,0,38.41,46C40,48.56,45.33,49,45.33,49s5.1-.34,5.1-4.54V25.38a8.24,8.24,0,0,1,4.25.45c4.8,1.77,4.54,9.18,4.54,9.41s.17,6.24-1.93,9.47a14.21,14.21,0,0,1-5.95,4.76c6.74-.4,9.58-3.06,9.58-3.06a9.93,9.93,0,0,0,2.39-3.14,18.5,18.5,0,0,0,1.37-7.15A11.9,11.9,0,0,0,63.24,29.22ZM42.74,46a6.72,6.72,0,0,1-1.09-2.63,19.92,19.92,0,0,1-.57-5.05c0-1.43.21-2.92.35-4.34a8.75,8.75,0,0,1,2-5.43A8.77,8.77,0,0,1,45.33,27v19.5C44.4,46.52,43.39,46.76,42.74,46Z"/><path class="cls-3" d="M100.25,19.26a13.43,13.43,0,0,0-2.18-4.32,16.26,16.26,0,0,0-6.47-4.82c-.9-.39-2.65-.57-1.63.31,2.08.91,4.21,7.77,4.21,7.77A71.88,71.88,0,0,0,97,25.46c.65,1,1.63.3,2.34-.16C101,24.23,100.75,21,100.25,19.26Z"/><path class="cls-3" d="M66.61,16.18a10.48,10.48,0,0,0-1.82-3.45,13.44,13.44,0,0,0-5.36-3.87c-.75-.3-2.2-.45-1.36.25,1.73.73,3.5,6.22,3.5,6.22a55.54,55.54,0,0,0,2.35,5.81c.54.82,1.35.24,1.94-.13C67.25,20.15,67,17.59,66.61,16.18Z"/><path class="cls-3" d="M164,11.7a5.14,5.14,0,0,0-.8-1.83,8,8,0,0,0-2.82-2.34c-.41-.21-1.24-.41-.8,0,.94.51,1.57,3.33,1.57,3.33a25,25,0,0,0,.93,3c.25.45.76.24,1.13.11C164.1,13.69,164.15,12.42,164,11.7Z"/><path class="cls-3" d="M167.69,9.63a5,5,0,0,0-1-1.73,8,8,0,0,0-3.07-2c-.43-.17-1.28-.27-.8.09,1,.4,1.94,3.13,1.94,3.13A25,25,0,0,0,166,12c.3.42.78.15,1.14,0C168,11.59,167.91,10.33,167.69,9.63Z"/><path class="cls-3" d="M317,14.2a11.25,11.25,0,0,0-2.38-2.75,16.84,16.84,0,0,0-6.31-3.19c-.87-.25-2.58-.37-1.58.21,2,.61,4.1,5.14,4.1,5.14.37.73.79,1.46,1.18,2.19a6,6,0,0,0,1.44,1.94c1,.85,2,.4,2.91-.32A2.34,2.34,0,0,0,317,14.2Z"/><path class="cls-3" d="M314,25.31a11.44,11.44,0,0,0-2.39-2.74,16.79,16.79,0,0,0-6.3-3.19c-.87-.25-2.58-.37-1.59.21,2,.6,4.11,5.13,4.11,5.13.37.74.79,1.46,1.18,2.2a5.71,5.71,0,0,0,1.44,1.94c1,.85,2,.4,2.91-.32A2.35,2.35,0,0,0,314,25.31Z"/><path class="cls-3" d="M88.66,17.1c-.07,0-.14,0-.2,0l-6.91,0c.72-5.3,1.25-10.33,1.25-10.33-2.27.85-7.15.79-7.15.79,1.84,1.27,1.28,6.63.83,9.55-4,0-7.49,0-7.69,0l1.65,3.29L71.8,19h4.34c-3.41,19.65-6.66,28.45-6.66,28.45l5.55,2s4.08-18.14,5.33-24.71c.32-1.69.63-3.69.93-5.73h3.85a3.37,3.37,0,0,1,3.32,3.37v4.28c0,1.87-.12,3.74-.22,5.61-.12,2.37-.22,4.75-.36,7.12a21.47,21.47,0,0,1-.4,3.67c-.18.73-.38,2.05-1,2.53a2.69,2.69,0,0,1-2.76.22c-.29-.2-1.8-1.21-2-.57-.17.43.38.88.65,1.14,1.1,1.06,2.2,2.37,3.66,2.92a4.39,4.39,0,0,0,3.41.15,5.69,5.69,0,0,0,2.65-3,13.32,13.32,0,0,0,.57-1.86,19.76,19.76,0,0,0,.47-4.34c.06-1.46.11-2.92.16-4.38,0-.35,0-.69,0-1l.2-12.93A4.79,4.79,0,0,0,88.66,17.1Z"/><path class="cls-3" d="M126.05,15.69l-2.73-3.52-.85,1.47h-7.76a66,66,0,0,0,.85-6.85l-6,.28-1.08.79.63.4s.86-.24.23,5.38h-7l2.27,3.52,1.19-1.47h3.26c-1,7.42-4.28,24.88-4.28,24.88l-1.87,7.37,5.5,1.42s2.55-11.28,2.89-13.5,1.64-8.61,2.38-14.28c.35-2.7.6-4.61.76-5.89Z"/><polygon class="cls-3" points="119.47 21.86 118.17 23.34 116.52 20.62 131.2 20.62 130.98 21.98 119.47 21.86"/><path class="cls-3" d="M127,21.94a1.52,1.52,0,0,1,.74,2.36,35.89,35.89,0,0,1-3.4,4.54s-.8,1,0,.85a14.1,14.1,0,0,0,2.87-1c3.08-1.21,5.55-3.74,5.17-7.3a1.36,1.36,0,0,0-1.19-.79A24.75,24.75,0,0,0,127,21.94Z"/><path class="cls-3" d="M121.67,48.56c-2.32,0-4.63-.38-5.71-2.55a14,14,0,0,1,0-9.69s2.15-3.46,1.3,0c0,0-.63,2.66-.17,3.29a3.52,3.52,0,0,0,3.4,2.26h8.79a4.65,4.65,0,0,0,2.55-1,12.76,12.76,0,0,0,1.36-1.59s.57-.62.45.34-.49,4.59-1.21,6.12a4.15,4.15,0,0,1-3.54,2.67Z"/><path class="cls-3" d="M135.8,18.75s9.63-4.65,16.89-5c4.09-.23,8.91.74,11.36,4.29,2.3,3.34,2.58,6.87,2.58,10.79,0,4.64-.68,7.48-2.49,10.31s-6.35,6.58-9.07,7-7.82.68-7.82.68-1.56,0-.43-.74a10.22,10.22,0,0,1,2.41-.56,13.63,13.63,0,0,0,2.42-.94,14.07,14.07,0,0,0,4.44-3.6,22.92,22.92,0,0,0,4.39-6.91c1-3,.72-6.34.63-9.48s-1.29-6-4.17-7.47a9.9,9.9,0,0,0-6.46-.79s-6.3.51-11.57,7Z"/><path class="cls-3" d="M169.93,9.34c0,2.87-.2,5.75-.21,8.63,0,2.41,0,4.81.1,7.22s.15,4.83.25,7.25c.09,1.83.2,4.49.3,6.32,0,.8.06.77.12,1.58,0,0,0,.06,0,.09a9.52,9.52,0,0,0,3,5.27c1.7,1.7,3.35-.64,4.2-1.53s2.09-4.42,2.09-4.42c.12-1.62-1.07.51-1.07.51a1.83,1.83,0,0,1-1.4,1c-1,.12-1.44-.9-1.66-1.36a11.52,11.52,0,0,1-.21-2.43q0-3.48,0-7c0-1.94,0-3.88,0-5.81,0-1.54,0-3.07,0-4.61,0-1.12,0-2.24,0-3.36,0-.86,0-1.72.07-2.58.09-2.18.29-4.37.44-6.55a4.4,4.4,0,0,1,0-.65s-6.29,1.7-6.89,1.53Z"/><path class="cls-3" d="M197.47,16l-1.36,1.36h-2.5V6.33l-6.74,1.59L188.12,9v8.4H177.91l1.87,2.6,1-.93h7.32v17s-.18,4.25-1.7,6.46a52.93,52.93,0,0,1-5.84,6.07s-1,1.08,0,1a34.85,34.85,0,0,0,4.19-1.3,20.18,20.18,0,0,0,5.47-4.42c1.84-2.44,3.37-5,3.37-7.71V19.06h6Z"/><path class="cls-3" d="M215,15.94l-1-1.1,6.63-1.28L220,26.06a51.94,51.94,0,0,1-1.36,9.18c-1.11,4.08-2.38,7.65-4.68,9.35a7.89,7.89,0,0,1-4.25,1.71c-5.37,0-6.52-8-7.07-11.9a30.75,30.75,0,0,1-.3-5.07c.24-7.91,3.42-18.35,12.45-20.13,2.65-.53,7.11-.57,9.63.62,4.83,2.27,7.58,7.28,8.38,12.33s1.21,11.1-.76,15.94-6.48,9.84-12,10.42c0,0-3.32.34-.51-.94C227,44.16,229,34.29,228.65,26.9a28.9,28.9,0,0,0-.91-6.68c-.82-2.8-1.79-6.17-4.31-7.93-2.71-1.89-7.29-2.51-10.1-.42-5.93,4.44-5.68,13.36-5.72,20,0,3.57.12,8.09,2.27,11.13A1.34,1.34,0,0,0,212.2,43c1.25-1.59,2.44-4.87,2.67-9.8S215,15.94,215,15.94Z"/><path class="cls-3" d="M266,42a17.19,17.19,0,0,0-2.54-4.33,16.82,16.82,0,0,0-6.71-5.05l-.33-.12c3.06-5.56,5.22-12.06,5.22-18.38,0-3.82-3.15-4-3.15-4H238.31l1.7,3.06,1.78-1.45h12.08a2.09,2.09,0,0,1,2.21,2.6c0,3.65-1.44,7.41-2.58,10.81A49.87,49.87,0,0,1,251.14,31c-3,6.13-7.52,13.27-13.6,16.7-1.95,1.11.77.6.77.6,2.55-.48,5.18-2.44,7.32-3.83a28.82,28.82,0,0,0,6.28-5.31,36.17,36.17,0,0,0,3.54-4.91c.13-.21.24-.42.36-.63,1.88,2,3.59,7.53,3.59,7.53.4,1.16.84,2.31,1.26,3.46a10.09,10.09,0,0,0,1.53,3.08c1.11,1.34,2.17.62,3.1-.51A4.94,4.94,0,0,0,266,42Z"/><path class="cls-3" d="M432.39,42a17.47,17.47,0,0,0-2.53-4.33,16.85,16.85,0,0,0-6.72-5.05l-.32-.12C425.87,27,428,20.47,428,14.15c0-3.82-3.15-4-3.15-4H404.73l1.7,3.06,1.79-1.45h12.07a2.09,2.09,0,0,1,2.21,2.6c0,3.65-1.44,7.41-2.58,10.81A48.16,48.16,0,0,1,417.56,31c-3,6.13-7.51,13.27-13.59,16.7-2,1.11.76.6.76.6,2.56-.48,5.18-2.44,7.32-3.83a28.82,28.82,0,0,0,6.28-5.31,36.24,36.24,0,0,0,3.55-4.91l.35-.63c1.88,2,3.6,7.53,3.6,7.53.39,1.16.84,2.31,1.25,3.46a10.32,10.32,0,0,0,1.53,3.08c1.11,1.34,2.17.62,3.1-.51A4.94,4.94,0,0,0,432.39,42Z"/><path class="cls-3" d="M272.71,38.35a.25.25,0,0,1-.17,0,4.87,4.87,0,0,1-2.08-2.57c-.35-.71-.64-1.44-.94-2.17a8.11,8.11,0,0,1-.78-2,2,2,0,0,1,.6-1.34c1.36-1.78,8.93-14.53,8.93-14.53s2.21-3.66,4.42,0c1.74,2.88,3.32,5.85,5.18,8.66a46.87,46.87,0,0,0,6.86,7.89l3.7,3.53c.24.23,1.78,1.33,1.78,1.68V47.91s-.68.09-1.79-.85c-6-5.11-9.49-12.87-12.71-19.92q-1.09-2.38-2.06-4.83c-.38-1-.77-1.91-1.15-2.86A6.34,6.34,0,0,0,281.24,17c-.93-.82-1.81-.37-2.2.71-1.38,3.76-2.73,7.54-3.84,11.4-.49,1.7-.88,3.43-1.23,5.17-.16.8-.3,1.62-.49,2.41C273.38,37.13,273.22,38.21,272.71,38.35Z"/><path class="cls-3" d="M306,40.94,304.12,40,306,48.51c.05.21,5.37-1.71,5.69-1.85,6.25-2.75,11.34-8.32,15-14a33.34,33.34,0,0,0,2.77-5.42c.76-1.9,1.56-3.82,2.13-5.79a9,9,0,0,0,.44-2.11,2,2,0,0,0,0-.73c-.24-.53-.86,1-.93,1.14-2.82,6.32-8,11.6-13.63,15.54a44.26,44.26,0,0,1-7.74,4.41C309.13,39.94,306.55,41.18,306,40.94Z"/><path class="cls-3" d="M360.58,21.13H349.23l-.39-6.29-5.95,1.61,1.19.94.24,3.74h-5.85l1.78,3.14,1.36-1.53h2.82L346.21,50l4.76-.68-1.64-26.55,7.5,0c5.69,0-1.6,10.91-2.89,12.37s1.18.56,1.76.34c2.33-.93,4.74-2.12,6.25-4.21s1.85-4.92,1.94-7.44S360.58,21.13,360.58,21.13Z"/><polygon class="cls-3" points="379.37 33.49 379.37 7.86 372.48 9.82 373.58 10.84 373.58 33.49 379.37 33.49"/><path class="cls-3" d="M389.65,8.64l1.11,1V30.91a19.85,19.85,0,0,1-1.53,6.8,24.06,24.06,0,0,1-6,8.16c-2.3,1.87-3.4,2.64-3.4,2.64s-2.21.85,0,.76a13,13,0,0,0,3.91-.76c7.39-3,12.75-9.34,12.75-17.6V7.35Z"/><path class="cls-3" d="M461.5,29.07a18.4,18.4,0,0,0-4.06-3.55,19,19,0,0,0-8.8-2.89,5.52,5.52,0,0,0-1.51.1v-16l-7.14,2,1.36,1.45V49.7h5.78V23.55c2.66.58,7,6.71,7,6.71.77,1,1.6,2.05,2.4,3.08a10.49,10.49,0,0,0,2.59,2.6c1.6,1,2.53-.08,3.2-1.53A4.86,4.86,0,0,0,461.5,29.07Z"/><path class="cls-3" d="M293.36,10.58c-1.9,0-3.44,1.93-3.44,4.3s1.54,4.29,3.44,4.29,3.45-1.92,3.45-4.29S295.26,10.58,293.36,10.58Zm0,6.72a2.24,2.24,0,0,1-2-2.42,2,2,0,1,1,4,0A2.23,2.23,0,0,1,293.36,17.3Z"/><path class="cls-3" d="M36.09,70.73h-13V66.42A1.08,1.08,0,0,0,22,65.34H16.14a1.08,1.08,0,0,0-1.08,1.08v4.31h-13A1.07,1.07,0,0,0,1,71.8V86A1.07,1.07,0,0,0,2.08,87H6A1.08,1.08,0,0,0,7.07,86V79.33h24V86A1.07,1.07,0,0,0,32.18,87h3.91A1.08,1.08,0,0,0,37.17,86V71.8A1.08,1.08,0,0,0,36.09,70.73Z"/><path class="cls-3" d="M36,117.05h0s-7.44-8.09-8.15-8.81a1,1,0,0,1,0-1.41l7.13-8.15a.8.8,0,0,0,.35-.66V91.6a.85.85,0,0,0-.85-.85.83.83,0,0,0-.72.45h0L26.51,99.9s-1,.35-1-.58c0-.28,0-.49,0-.67,0,0,0,0,0-.07s0-.12,0-.18c0-.25,0-.37,0-.37h0a7.33,7.33,0,0,0-7.26-6.85H16.77V89.71H28.38a1.07,1.07,0,0,0,1.07-1.07V81.89a1.07,1.07,0,0,0-1.07-1.07H9.84a1.07,1.07,0,0,0-1.07,1.07v6.75a1.07,1.07,0,0,0,1.07,1.07h1.42v2.16a2.59,2.59,0,0,1-2.64,2.55H3.84a1.07,1.07,0,0,0-1.08,1.07v6.75a1.08,1.08,0,0,0,1.08,1.08H9.66a1,1,0,0,0,.8-.39h0l4.08-3h2.71L4.5,109.84h0a1.06,1.06,0,0,0-.66,1v5.82a1.06,1.06,0,0,0,1.92.64h0L21,105.44a1.55,1.55,0,0,1-.07,2.67L7.07,118.81A1.08,1.08,0,0,0,6,119.88v5.83a1.09,1.09,0,0,0,1.08,1.08,1,1,0,0,0,.84-.44v0l13.84-10.61s1-.34,1,.89V120h-2.6A1.08,1.08,0,0,0,19.08,121v6.21h0a1.07,1.07,0,0,0,1.07,1.08h6.57a1.07,1.07,0,0,0,1.07-1.08V116.81l7,7.82h0a.83.83,0,0,0,1.54-.44v-6.43A.84.84,0,0,0,36,117.05Z"/><path class="cls-3" d="M57.84,126.78l-2.93-11.73h1.87A1.07,1.07,0,0,0,57.85,114V67A1.08,1.08,0,0,0,56.78,66H43.26A1.08,1.08,0,0,0,42.18,67V114a1.07,1.07,0,0,0,1.08,1.07h1.86L42.2,126.78a1,1,0,0,0-.12.46,1.08,1.08,0,0,0,1.08,1.08h2.55a1.07,1.07,0,0,0,1.07-1.08l3-12.19h.38l3,12.19a1.08,1.08,0,0,0,1.08,1.08h2.55A1.07,1.07,0,0,0,58,127.24,1,1,0,0,0,57.84,126.78Zm-5.33-22.87h-5v-2.15h5Zm0-12.61h-5V89.15h5Zm0-12.61h-5V76.54h5Z"/><path class="cls-3" d="M77.69,79.23h-2V67A1.08,1.08,0,0,0,74.63,66H70.72A1.09,1.09,0,0,0,69.64,67V79.23H60.77a1.08,1.08,0,0,0-1.08,1.08v8.84a1.08,1.08,0,0,0,1.08,1.07h8.87l-10,19.57v0a1.09,1.09,0,0,0-.19.59,1.06,1.06,0,0,0,.19.58v10.13c0,2.83,1.49-.46,1.49-.46L69.64,104v13.12H66.89a1.07,1.07,0,0,0-1.07,1.08v9a1.07,1.07,0,0,0,1.07,1.08h7.74a1.08,1.08,0,0,0,1.08-1.08v-37h2a1.07,1.07,0,0,0,1.08-1.07V80.31A1.08,1.08,0,0,0,77.69,79.23Z"/><path class="cls-3" d="M119.38,90.34a8.41,8.41,0,0,1-4.3-1.48c1.74-2.92,3-9.63,3-9.63h1.08a1.07,1.07,0,0,0,1.07-1.08V71.46a1.07,1.07,0,0,0-1.07-1.07h-9.83v-3.8a1.08,1.08,0,0,0-1.08-1.08h-2.87a1.07,1.07,0,0,0-1.07,1.08v8.73A2.83,2.83,0,0,1,102,78.09a1.08,1.08,0,0,0-1.07-1H95.27v-1.7H101A1.07,1.07,0,0,0,102,74.3V69.59A1.07,1.07,0,0,0,101,68.52H95.27V66.59a1.08,1.08,0,0,0-1.08-1.08H91a1.07,1.07,0,0,0-1.07,1.08v1.93h-5.7a1.08,1.08,0,0,0-1.08,1.07V74.3a1.08,1.08,0,0,0,1.08,1.07h5.7v1.7h-5.7a1.09,1.09,0,0,0-1.08,1.08V89.43a1.08,1.08,0,0,0,1.08,1.08h3.47c-2,2.4-2.84,2.47-3,2.44h0a1.48,1.48,0,0,0-1.48,1.48v6.69a1.47,1.47,0,0,0,1.48,1.47V107a1.07,1.07,0,0,0,1.07,1.08H98v13.35H94.19v-8.87a1.08,1.08,0,0,0-1.08-1.08H88a1.08,1.08,0,0,0-1.07,1.08v8.87H84.21a1.07,1.07,0,0,0-1.07,1.08v5.1a1.08,1.08,0,0,0,1.07,1.08h35a1.08,1.08,0,0,0,1.07-1.08v-5.1a1.07,1.07,0,0,0-1.07-1.08H105.07v-3.09h10a1.07,1.07,0,0,0,1.07-1.08v-5.1a1.07,1.07,0,0,0-1.07-1.07h-10v-3h12.61a1.08,1.08,0,0,0,1.08-1.08v-5.1a1.07,1.07,0,0,0-1.08-1.07H102v-1.9a1.36,1.36,0,0,0,.74.24s3.59-.11,8.3-4.42c4.71,4.31,8.3,4.42,8.3,4.42a1.41,1.41,0,0,0,1.42-1.42v-6A1.41,1.41,0,0,0,119.38,90.34ZM87.71,82.6h1.87v2.18H87.71Zm2.23,18.23H86.47a27.22,27.22,0,0,0,3.47-4.49ZM95.62,82.6h1.87v2.18H95.62Zm-.35,18.23V96.34a27,27,0,0,0,3.46,4.49Zm7.51-10.49a1.41,1.41,0,0,0-1.42,1.42V93.1l-.8-.16s-.73.34-3.07-2.43H101A1.08,1.08,0,0,0,102,89.43v-3a5.74,5.74,0,0,0,1.51.23,5.47,5.47,0,0,0,2.35-.53,14.71,14.71,0,0,0,1.18,2.68A8.41,8.41,0,0,1,102.78,90.34Zm8.3-5.16a9.35,9.35,0,0,1-1.92-3.12,6.3,6.3,0,0,0,.17-1.39,11.07,11.07,0,0,0-.11-1.44h4.24S113.86,82.12,111.08,85.18Z"/><path class="cls-3" d="M137.61,78.69a1.07,1.07,0,0,0,1.07-1.08v-10a1.07,1.07,0,0,0-1.07-1.07h-11.4a1.07,1.07,0,0,0-1.07,1.07v10a1.07,1.07,0,0,0,1.07,1.08H129V86.4h-2.81a1.07,1.07,0,0,0-1.07,1.08v9.94a1.07,1.07,0,0,0,1.07,1.08H129v14l-3.26,2.22h0a1.26,1.26,0,0,0-.82,1.18v10a1.27,1.27,0,0,0,1.27,1.28,1.25,1.25,0,0,0,.89-.37h0l10.74-7.31h0a1.26,1.26,0,0,0,.85-1.19v-10a1.27,1.27,0,0,0-1.27-1.28,1.24,1.24,0,0,0-.86.35h0l-1.75,1.19V98.5h2.81a1.07,1.07,0,0,0,1.07-1.08V87.48a1.07,1.07,0,0,0-1.07-1.08H134.8V78.69Z"/><path class="cls-3" d="M160.38,117.75h-6.45v-1.93H159a1.08,1.08,0,0,0,1.08-1.08v-8.41a1.08,1.08,0,0,0-1.08-1.08h-5.09V103h5.84a1.5,1.5,0,0,0,1.5-1.5V67.24a1.5,1.5,0,0,0-1.5-1.5H142a1.5,1.5,0,0,0-1.5,1.5v34.24A1.5,1.5,0,0,0,142,103h5.84v2.27h-5.09a1.07,1.07,0,0,0-1.07,1.08v8.41a1.08,1.08,0,0,0,1.07,1.08h5.09v1.93h-6.45a1.07,1.07,0,0,0-1.07,1.08v8.41a1.08,1.08,0,0,0,1.07,1.08h19a1.08,1.08,0,0,0,1.08-1.08v-8.41A1.08,1.08,0,0,0,160.38,117.75Zm-6.73-41.61h2.15v2.92h-2.15Zm-5.56,16.43h-2.15V89.65h2.15Zm0-13.51h-2.15V76.14h2.15Zm5.56,10.59h2.15v2.92h-2.15Z"/><path class="cls-3" d="M201.27,74.38H198.2V66.81h0a1.07,1.07,0,0,0-1.07-1.07H189a1.07,1.07,0,0,0-1.08,1.07h0v7.57H181V66.81A1.07,1.07,0,0,0,180,65.74h-8.13a1.07,1.07,0,0,0-1.07,1.07v7.57h-3.27a1.07,1.07,0,0,0-1.07,1.08V92.92A1.07,1.07,0,0,0,167.48,94h3.27v9a1.08,1.08,0,0,0,1.07,1.08H180A1.08,1.08,0,0,0,181,103V94h6.89v11.17a4.32,4.32,0,0,1-4.3,4H170.49a1.07,1.07,0,0,0-1.08,1.07v17a1.08,1.08,0,0,0,1.08,1.08h18.6c5,0,9.11-5.92,9.11-13.21V94h3.07a1.07,1.07,0,0,0,1.07-1.07V75.46A1.07,1.07,0,0,0,201.27,74.38Z"/><rect class="cls-3" x="207.73" y="88.57" width="35.82" height="17.33" rx="1.08" ry="1.08"/><path class="cls-3" d="M284,82h-9a3.51,3.51,0,0,1-3.23-3.42,3.29,3.29,0,0,1,.07-.63H259.7V66.81a1.08,1.08,0,0,0-1.08-1.07H250a1.07,1.07,0,0,0-1.08,1.07v55a5.91,5.91,0,0,0,5.67,6.12h28.93a1.08,1.08,0,0,0,1.08-1.08V110.09a1.07,1.07,0,0,0-1.08-1.07H260.37a1.44,1.44,0,0,1-.67-1.19V97.74H284a1.09,1.09,0,0,0,1.08-1.08V83A1.08,1.08,0,0,0,284,82Z"/><rect class="cls-3" x="273.41" y="63.94" width="5.56" height="15.48" rx="1.08" ry="1.08"/><rect class="cls-3" x="280.84" y="63.94" width="5.56" height="15.48" rx="1.08" ry="1.08"/><path class="cls-3" d="M366.44,96h-5.9A1.07,1.07,0,0,0,359.47,97h0v29.81a1.07,1.07,0,0,0,1.07,1.08h5.9a1.08,1.08,0,0,0,1.08-1.08V97A1.08,1.08,0,0,0,366.44,96Z"/><path class="cls-3" d="M359.47,66.56h-19.9a1.07,1.07,0,0,0-1.07,1.08v8.67a1.08,1.08,0,0,0,1.07,1.08h11.32l-6.6,10.72h0a6.36,6.36,0,0,0-1.2,2.74v8.76a1.07,1.07,0,0,0,1.08,1.07h3.61a1.06,1.06,0,0,1,1.06,1.06h0v15.35h-6a1.09,1.09,0,0,0-1.08,1.08v8.67a1.08,1.08,0,0,0,1.08,1.08H353c2.31,0,4.18-2.78,4.18-6.21V95.23h0c-.14-2.68-1.94-4.81-4.16-4.81h-.74l8-13.48s0,0,0,0a1,1,0,0,0,.13-.23h.07v-9A1.07,1.07,0,0,0,359.47,66.56Z"/><path class="cls-3" d="M338.5,96h-5.9A1.07,1.07,0,0,0,331.53,97h0v29.81a1.07,1.07,0,0,0,1.07,1.08h5.9a1.07,1.07,0,0,0,1.07-1.08V97A1.07,1.07,0,0,0,338.5,96Z"/><path class="cls-3" d="M405.21,96h-5.89A1.08,1.08,0,0,0,398.24,97v19.26a.87.87,0,0,1-.87.87H383.78a.87.87,0,0,1-.87-.87V67.64a1.08,1.08,0,0,0-1.08-1.08h-5.89a1.08,1.08,0,0,0-1.08,1.08v53.88A6.28,6.28,0,0,0,381,128h19.19a6.29,6.29,0,0,0,6.12-6.42h0V97A1.08,1.08,0,0,0,405.21,96Z"/><path class="cls-3" d="M325.33,107.34l-1-.59a14.42,14.42,0,0,1-5.66-5.93,44.63,44.63,0,0,0,2-13.12v-17c0-2.78-1.92-5-4.3-5a2.24,2.24,0,0,0-.24,0H291.87a1.07,1.07,0,0,0-1.07,1.07v16.8a1.07,1.07,0,0,0,1.07,1.07h14.8A2.29,2.29,0,0,1,309,87s.77,8.2-2.29,13.14-5.53,6.63-7.06,6.63h-8.42a1.07,1.07,0,0,0-1.07,1.07h0v19a1.07,1.07,0,0,0,1.07,1.08h9.87c4.42,0,9.95-8.67,9.95-8.67s.15-.39.44-1.08a44.73,44.73,0,0,0,10.18,9.15,1.63,1.63,0,0,0,2.55-.48s1.88-8.19,2.89-13.54c.59-3.07.42-4.21.17-4.63Z"/><rect class="cls-3" x="397.47" y="63.94" width="5.56" height="15.48" rx="1.08" ry="1.08"/><rect class="cls-3" x="404.67" y="63.94" width="5.56" height="15.48" rx="1.08" ry="1.08"/><path class="cls-3" d="M425.68,116.93H422.1V74.07A1.07,1.07,0,0,0,421,73h-5.9a1.07,1.07,0,0,0-1.07,1.08v52.8a1.07,1.07,0,0,0,1.07,1.08h10.55a1.07,1.07,0,0,0,1.07-1.08V118A1.07,1.07,0,0,0,425.68,116.93Z"/><path class="cls-3" d="M446.64,73h-8.52A1.08,1.08,0,0,0,437,74.07v8.84A1.08,1.08,0,0,0,438.12,84h3.22a.72.72,0,0,1,.72.72v30.37a1.08,1.08,0,0,0,1.08,1.08H449a1.08,1.08,0,0,0,1.08-1.08V76.68A3.59,3.59,0,0,0,446.64,73Z"/><path class="cls-3" d="M486.22,89.6h-9.63l9.92-12.74h0a1.07,1.07,0,0,0,.43-.85V67.17a1.07,1.07,0,0,0-1.07-1.07H459.32a1.07,1.07,0,0,0-1.08,1.07V76a1.08,1.08,0,0,0,1.08,1.08h15.19L455.35,102.9h0a.88.88,0,0,0,.66,1.48h8.63a.87.87,0,0,0,.71-.37h0l2.76-3.56h13.54a1.41,1.41,0,0,1,1.4,1.41v13.67a1.4,1.4,0,0,1-1.4,1.4h-19a1.07,1.07,0,0,0-1.07,1.08v8.86a1.07,1.07,0,0,0,1.07,1.08v0h23.54c2.64,0,4.8-3.11,5-7h0V97.14C491.2,93,489,89.6,486.22,89.6Z"/></svg>